<?xml version="1.0" encoding="UTF-8"?>
<svg width="264px" height="101px" viewBox="0 0 264 101" version="1.1" xmlns="http://www.w3.org/2000/svg" xmlns:xlink="http://www.w3.org/1999/xlink" style="background: #BF9A5E;">
    <title>logo_mygolfspy_fullsvg</title>
    <g id="Page-1" stroke="none" stroke-width="1" fill="none" fill-rule="evenodd">
        <g id="logo" fill-rule="nonzero">
            <rect id="Rectangle" fill="#BF9A5E" x="0" y="0" width="264" height="101"></rect>
            <g id="Group" transform="translate(40.019100, 30.103040)" fill="#000000">
                <g transform="translate(65.904454, 2.618466)">
                    <g transform="translate(1.006480, 15.706709)">
                        <polygon id="Path" points="0 0.347326879 5.1624639 0.347326879 7.37051775 8.52157254 7.4705655 8.52157254 9.77166375 0.347326879 14.7070193 0.347326879 14.7070193 20.8311075 11.1353146 20.8311075 11.1353146 6.43737069 11.0702835 6.43737069 8.76918529 15.1675373 5.97685259 15.1675373 3.601719 6.46847818 3.53668796 6.46847818 3.53668796 20.8311075 0 20.8311075"></polygon>
                        <polygon id="Path" points="20.3257009 12.7552016 16.0396553 0.347326879 20.3257009 0.347326879 22.5987858 8.0328839 24.7738239 0.347326879 28.637668 0.347326879 24.3846381 12.790323 24.3846381 20.8341179 20.3257009 20.8341179"></polygon>
                        <path d="M29.41704,15.7505519 L29.41704,5.32853919 C29.41704,1.94183662 31.9822643,0.0533109231 35.2938448,0.0533109231 C38.3463016,0.0533109231 40.9755565,1.74716394 40.9755565,4.9060794 L40.9755565,7.05550663 L37.2737898,7.05550663 L37.2737898,5.23120285 C37.1983656,4.21432985 36.32674,3.44421103 35.3114801,3.4974177 C34.2962203,3.55062438 33.5093614,4.40765933 33.5400077,5.42687899 L33.5400077,15.6853265 C33.4663215,16.2024825 33.6277906,16.7255206 33.9799548,17.1104237 C34.332119,17.4953268 34.8378424,17.7015066 35.3578753,17.672192 C35.8367077,17.734854 36.3170958,17.5684276 36.6552915,17.2227132 C36.9934872,16.8769988 37.1502594,16.3920995 37.0786967,15.9131136 L37.0786967,13.0793216 L35.0007049,13.0793216 L35.0007049,10.0187459 L41.0035699,10.0187459 L41.0035699,16.1398972 C41.0035699,19.3640381 38.795516,21.1873384 35.3538734,21.1873384 C31.9492485,21.1562309 29.41704,19.2998162 29.41704,15.7505519 Z" id="Path"></path>
                        <path d="M43.0535483,15.5227648 L43.0535483,5.58843725 C43.0535483,1.94083315 45.6187726,0.0191930306 48.9953842,0.0191930306 C52.2749494,0.0191930306 54.9052048,1.74515701 54.9052048,5.52321187 L54.9052048,15.4575394 C54.9052048,19.2707156 52.2749494,21.12412 48.9633689,21.12412 C45.4546943,21.1562309 43.0535483,19.3650416 43.0535483,15.5227648 Z M50.8132518,15.6231115 L50.8132518,5.42687899 C50.8525211,4.92348194 50.6701676,4.42806276 50.3141881,4.07101941 C49.9582086,3.71397606 49.4642655,3.53107761 48.9623684,3.57046425 C48.457041,3.52912488 47.9598663,3.71727353 47.6077135,4.08311413 C47.2555606,4.44895472 47.085556,4.95391765 47.1445008,5.45898995 L47.1445008,15.5879902 C47.0908144,16.2754181 47.4239217,16.9354711 48.0080389,17.2990936 C48.5921561,17.662716 49.3297174,17.6691716 49.9200726,17.3158288 C50.5104278,16.9624859 50.854969,16.3083641 50.8132518,15.6201011 L50.8132518,15.6231115 Z" id="Shape"></path>
                        <polygon id="Path" points="57.1452739 0.347326879 61.1711953 0.347326879 61.1711953 17.3470686 67.0159849 17.3470686 67.0159849 20.8321109 57.1452739 20.8321109"></polygon>
                        <polygon id="Path" points="68.899884 0.347326879 78.7045635 0.347326879 78.7045635 3.76714387 72.924805 3.76714387 72.924805 8.71724869 77.5350053 8.71724869 77.5350053 12.2022911 72.924805 12.2022911 72.924805 20.8652254 68.899884 20.8652254"></polygon>
                        <path d="M79.7440597,15.2297523 L83.5108575,15.0993015 C83.6409195,16.3696913 83.9000432,17.8347537 85.3287251,17.8347537 C86.4652675,17.8347537 86.822438,16.8573765 86.822438,15.946228 C86.822438,14.8424139 86.108097,13.992477 84.9395393,12.8846489 L82.9906092,10.9589949 C81.1727415,9.23303095 80.0361991,7.53917793 80.0361991,5.29241436 C79.9607957,3.84239492 80.5137546,2.43042127 81.5529141,1.41950109 C82.5920737,0.408580904 84.0160637,-0.102670363 85.4587871,0.0171860957 C88.0240115,0.0171860957 90.3941427,1.35280124 90.5612224,5.81421742 L87.0225335,5.94466819 C86.8924714,4.44649132 86.5353009,3.27444136 85.2696969,3.27444136 C84.2632165,3.27444136 83.8089997,4.05614249 83.8089997,5.00040534 C83.8089997,6.10421951 84.909525,7.11671814 85.8869915,8.06198446 L87.6988563,9.85518075 C89.6798017,11.7437064 90.7833284,13.5027848 90.7833284,15.8147738 C90.8423115,17.2831391 90.2796815,18.7080895 89.2343479,19.7378143 C88.1890143,20.7675392 86.7583983,21.3060721 85.2957093,21.2204528 C81.9190978,21.1562309 79.9391528,18.8773564 79.7440597,15.2297523 Z" id="Path"></path>
                        <path d="M92.7962891,0.347326879 L98.9992496,0.347326879 C102.343846,0.347326879 104.001637,2.56197949 104.001637,6.59993242 C104.001637,10.8014505 102.410878,13.3412266 98.8391732,13.3412266 L96.8262125,13.3412266 L96.8262125,20.7989965 L92.7962891,20.7989965 L92.7962891,0.347326879 Z M98.2188772,10.0518604 C99.4194502,10.0518604 100.036745,8.9480462 100.036745,6.69726876 C100.036745,4.67829229 99.517497,3.70091502 98.2508925,3.70091502 L96.8222106,3.70091502 L96.8222106,10.0508569 L98.2188772,10.0518604 Z" id="Shape"></path>
                        <polygon id="Path" points="108.738898 12.7552016 104.452852 0.347326879 108.738898 0.347326879 111.011983 8.0328839 113.187021 0.347326879 117.050865 0.347326879 112.76482 12.790323 112.76482 20.8341179 108.738898 20.8341179"></polygon>
                    </g>
                    <path d="M3.289,11 L3.289,5.016 L4.774,5.016 L4.774,3.63 L0.286,3.63 L0.286,5.016 L1.771,5.016 L1.771,11 L3.289,11 Z M7.183,11 L7.183,8.448 L7.843,8.448 L8.789,11 L10.549,11 L9.284,8.184 C10.01,7.81 10.406,7.073 10.406,6.039 C10.406,4.51 9.537,3.63 8.03,3.63 L5.676,3.63 L5.676,11 L7.183,11 Z M7.865,7.106 L7.183,7.106 L7.183,5.016 L7.865,5.016 C8.525,5.016 8.899,5.401 8.899,6.061 C8.899,6.721 8.525,7.106 7.865,7.106 Z M12.859,11 L12.859,3.63 L11.352,3.63 L11.352,11 L12.859,11 Z M17.974,11 L17.974,9.614 L15.598,9.614 L15.598,7.964 L17.622,7.964 L17.622,6.6 L15.598,6.6 L15.598,5.016 L17.974,5.016 L17.974,3.63 L14.091,3.63 L14.091,11 L17.974,11 Z M21.362,11 C22.792,11 23.738,10.109 23.738,8.745 L23.738,5.885 C23.738,4.521 22.792,3.63 21.362,3.63 L19.063,3.63 L19.063,11 L21.362,11 Z M21.318,9.614 L20.57,9.614 L20.57,5.016 L21.318,5.016 C21.89,5.016 22.231,5.379 22.231,5.929 L22.231,8.701 C22.231,9.251 21.89,9.614 21.318,9.614 Z M25.421,11.099 C25.971,11.099 26.334,10.736 26.334,10.197 C26.334,9.658 25.971,9.295 25.421,9.295 C24.871,9.295 24.508,9.658 24.508,10.197 C24.508,10.736 24.871,11.099 25.421,11.099 Z M31.922,11 L31.922,5.016 L33.407,5.016 L33.407,3.63 L28.919,3.63 L28.919,5.016 L30.404,5.016 L30.404,11 L31.922,11 Z M38.192,11 L38.192,9.614 L35.816,9.614 L35.816,7.964 L37.84,7.964 L37.84,6.6 L35.816,6.6 L35.816,5.016 L38.192,5.016 L38.192,3.63 L34.309,3.63 L34.309,11 L38.192,11 Z M41.305,11.132 C42.669,11.132 43.571,10.318 43.571,8.899 C43.571,6.237 40.535,6.864 40.535,5.544 C40.535,5.126 40.821,4.884 41.25,4.884 C41.701,4.884 41.987,5.137 41.987,5.533 L41.987,5.786 L43.461,5.786 L43.461,5.511 C43.461,4.312 42.592,3.498 41.239,3.498 C39.908,3.498 39.017,4.279 39.017,5.643 C39.017,8.217 42.064,7.656 42.064,8.998 C42.064,9.449 41.756,9.746 41.283,9.746 C40.799,9.746 40.48,9.449 40.48,8.998 L40.48,8.701 L38.984,8.701 L38.984,8.976 C38.984,10.285 39.908,11.132 41.305,11.132 Z M47.168,11 L47.168,5.016 L48.653,5.016 L48.653,3.63 L44.165,3.63 L44.165,5.016 L45.65,5.016 L45.65,11 L47.168,11 Z M53.438,11 L53.438,9.614 L51.062,9.614 L51.062,7.964 L53.086,7.964 L53.086,6.6 L51.062,6.6 L51.062,5.016 L53.438,5.016 L53.438,3.63 L49.555,3.63 L49.555,11 L53.438,11 Z M56.826,11 C58.256,11 59.202,10.109 59.202,8.745 L59.202,5.885 C59.202,4.521 58.256,3.63 56.826,3.63 L54.527,3.63 L54.527,11 L56.826,11 Z M56.782,9.614 L56.034,9.614 L56.034,5.016 L56.782,5.016 C57.354,5.016 57.695,5.379 57.695,5.929 L57.695,8.701 C57.695,9.251 57.354,9.614 56.782,9.614 Z M60.885,11.099 C61.435,11.099 61.798,10.736 61.798,10.197 C61.798,9.658 61.435,9.295 60.885,9.295 C60.335,9.295 59.972,9.658 59.972,10.197 C59.972,10.736 60.335,11.099 60.885,11.099 Z M67.386,11 L67.386,5.016 L68.871,5.016 L68.871,3.63 L64.383,3.63 L64.383,5.016 L65.868,5.016 L65.868,11 L67.386,11 Z M71.28,11 L71.28,8.448 L71.94,8.448 L72.886,11 L74.646,11 L73.381,8.184 C74.107,7.81 74.503,7.073 74.503,6.039 C74.503,4.51 73.634,3.63 72.127,3.63 L69.773,3.63 L69.773,11 L71.28,11 Z M71.962,7.106 L71.28,7.106 L71.28,5.016 L71.962,5.016 C72.622,5.016 72.996,5.401 72.996,6.061 C72.996,6.721 72.622,7.106 71.962,7.106 Z M77.715,11.132 C79.123,11.132 80.058,10.274 80.058,8.976 L80.058,3.63 L78.54,3.63 L78.54,8.943 C78.54,9.427 78.21,9.746 77.715,9.746 C77.209,9.746 76.879,9.427 76.879,8.943 L76.879,3.63 L75.372,3.63 L75.372,8.976 C75.372,10.274 76.307,11.132 77.715,11.132 Z M85.085,11 L85.085,9.614 L82.709,9.614 L82.709,7.964 L84.733,7.964 L84.733,6.6 L82.709,6.6 L82.709,5.016 L85.085,5.016 L85.085,3.63 L81.202,3.63 L81.202,11 L85.085,11 Z M86.801,11.099 C87.351,11.099 87.714,10.736 87.714,10.197 C87.714,9.658 87.351,9.295 86.801,9.295 C86.251,9.295 85.888,9.658 85.888,10.197 C85.888,10.736 86.251,11.099 86.801,11.099 Z" id="TRIED.TESTED.TRUE."></path>
                </g>
            </g>
            <g id="Group" transform="translate(40.000000, 30.000000)" fill="#000000">
                <path d="M28.6958042,8.90058979 L27.3776224,2.94076444 C17.9475524,4.92737289 11.0524476,11.2008733 11.0524476,11.2008733 L13.3846154,6.91398134 C12.1678322,7.12309802 10.1398601,7.75044806 6.79370629,9.21426481 L6.79370629,16.7424653 C8.01048951,16.0105569 19.3671329,9.63249817 28.6958042,8.90058979 Z" id="Path"></path>
                <path d="M16.7307692,40.7908833 L55.3636364,40.7908833 C53.1328671,29.289466 45.9335664,25.1071324 41.3706294,23.6433157 L50.9020979,15.2786485 C52.6258741,13.8148317 53.1328671,11.2008733 52.0174825,9.10970647 L48.1643357,1.47694769 C47.6573427,0.431364298 46.541958,-0.0914273995 45.4265734,0.0131309399 L40.2552448,0.535922637 C38.0244755,0.745039316 37.0104895,3.46355614 38.3286713,5.24104791 L45.020979,13.7102734 C45.4265734,14.2330651 45.4265734,15.0695318 45.020979,15.5923235 L38.9370629,20.9247988 L37.1118881,18.1017237 C37.1118881,18.1017237 35.1853147,18.6245154 31.9405594,19.8792154 L31.3321678,17.0561403 L36.1993007,15.6968819 C36.1993007,15.6968819 35.5909091,10.8871982 29.4055944,11.723665 C3.24475524,15.2786485 0,25.9435991 0,25.9435991 L7.90909091,23.747874 L7.90909091,32.6353328 L10.4440559,31.4851911 L10.4440559,33.7854746 C7.80769231,36.085758 5.37412587,38.5951582 3.95454545,40.8954417 L9.83566434,40.8954417 C21.6993007,27.1982992 35.0839161,23.3296406 35.0839161,23.3296406 L35.8951049,26.3618325 C23.2202797,32.0079828 16.7307692,40.7908833 16.7307692,40.7908833 Z M41.2692308,4.61369788 C40.8636364,4.09090618 41.1678322,3.46355614 41.7762238,3.25443946 C42.1818182,3.14988112 43.2972028,2.94076444 43.2972028,2.94076444 L44.8181818,9.21426481 L41.2692308,4.61369788 Z M17.3391608,21.2384738 L15.513986,23.3296406 C14.9055944,24.061549 13.8916084,24.1661074 13.1818182,23.5387573 L12.2692308,22.7022906 L17.3391608,21.2384738 Z M22.9160839,24.4797824 L22.9160839,24.4797824 C21.2937063,25.5253658 16.8321678,28.4529993 12.5734266,32.0079828 L12.5734266,28.1393242 L10.0384615,29.289466 L10.0384615,23.9569907 L10.6468531,24.375224 C12.979021,26.2572741 16.3251748,25.9435991 18.2517483,23.6433157 L21.9020979,19.4609821 L25.958042,18.3108403 C26.1608392,19.3564237 26.6678322,21.7612655 22.9160839,24.4797824 Z" id="Shape"></path>
            </g>
        </g>
    </g>
</svg>